<svg width="16" height="16" viewBox="0 0 16 16" fill="none" xmlns="http://www.w3.org/2000/svg">
<path d="M8 16C11.3137 16 14 14.6569 14 13C14 11.3431 11.3137 10 8 10C4.68629 10 2 11.3431 2 13C2 14.6569 4.68629 16 8 16Z" fill="#4A5780"/>
<path d="M6 1C9.3137 1 12 3.68629 12 7C12 10.3137 9.3137 13 6 13C2.68629 13 0 10.3137 0 7C0 3.68629 2.68629 1 6 1ZM5.33594 2.36523C4.83587 1.36542 3.03994 2.66123 2.33594 3.36523C1.83572 3.86582 0.33676 6.36495 1.33594 6.86523C2.33588 7.3652 1.83627 5.86514 3.33594 4.36523C4.83594 2.86523 5.83594 3.36523 5.33594 2.36523Z" fill="#8DA5F3"/>
<path opacity="0.7" d="M9 0C12.3137 0 15 2.68629 15 6C15 9.3137 12.3137 12 9 12C5.68629 12 3 9.3137 3 6C3 2.68629 5.68629 0 9 0ZM8.33594 1.36523C7.83587 0.36542 6.03994 1.66123 5.33594 2.36523C4.83572 2.86582 3.33676 5.36495 4.33594 5.86523C5.33588 6.3652 4.83627 4.86514 6.33594 3.36523C7.83594 1.86523 8.83594 2.36523 8.33594 1.36523Z" fill="#8DA5F3"/>
</svg>
